<?xml version="1.0" encoding="utf-8" ?>
<!-- Generator: Adobe Illustrator 13.0.2, SVG Export Plug-In . SVG Version: 6.00 Build 14948)  -->
<!DOCTYPE svg PUBLIC "-//W3C//DTD SVG 1.1//EN" "http://www.w3.org/Graphics/SVG/1.1/DTD/svg11.dtd">
<svg version="1.1" id="timecockpit_horizontal" xmlns="http://www.w3.org/2000/svg" xmlns:xlink="http://www.w3.org/1999/xlink"
	 x="0px" y="0px" width="569.179px" height="93.133px" viewBox="0 0 569.179 93.133" enable-background="new 0 0 569.179 93.133"
	 xml:space="preserve">
<g>
<path fill="#25a0da" d="M355.151,70.035c0,0.519-0.016,0.966-0.045,1.346c-0.03,0.38-0.085,0.7-0.16,0.958
		c-0.075,0.259-0.166,0.486-0.272,0.684c-0.106,0.2-0.35,0.486-0.731,0.867c-0.38,0.38-1.024,0.851-1.936,1.413
		c-0.913,0.563-1.94,1.065-3.083,1.506c-1.138,0.44-2.379,0.798-3.714,1.07c-1.338,0.274-2.723,0.411-4.15,0.411
		c-2.95,0-5.564-0.486-7.844-1.46c-2.282-0.972-4.191-2.395-5.727-4.264c-1.534-1.869-2.704-4.167-3.511-6.888
		c-0.806-2.718-1.209-5.861-1.209-9.423c0-4.046,0.494-7.522,1.482-10.426c0.988-2.902,2.343-5.283,4.06-7.139
		c1.717-1.853,3.74-3.23,6.067-4.127c2.323-0.895,4.839-1.345,7.547-1.345c1.307,0,2.577,0.123,3.808,0.366s2.365,0.563,3.398,0.958
		c1.033,0.396,1.954,0.852,2.758,1.367c0.807,0.518,1.394,0.958,1.759,1.324c0.363,0.364,0.614,0.654,0.75,0.866
		c0.139,0.213,0.252,0.464,0.342,0.752c0.093,0.291,0.153,0.617,0.185,0.98c0.029,0.365,0.043,0.822,0.043,1.37
		c0,1.185-0.135,2.013-0.408,2.485s-0.608,0.707-1.005,0.707c-0.456,0-0.979-0.251-1.574-0.753
		c-0.593-0.502-1.345-1.055-2.256-1.666c-0.913-0.606-2.016-1.162-3.308-1.664c-1.292-0.501-2.819-0.752-4.584-0.752
		c-3.615,0-6.392,1.391-8.323,4.173c-1.931,2.782-2.895,6.82-2.895,12.115c0,2.646,0.251,4.964,0.751,6.958
		c0.502,1.992,1.238,3.657,2.213,4.994c0.974,1.339,2.167,2.335,3.58,2.989c1.414,0.653,3.032,0.979,4.855,0.979
		c1.735,0,3.256-0.274,4.564-0.822c1.306-0.546,2.438-1.147,3.396-1.8c0.958-0.653,1.762-1.247,2.416-1.78
		c0.654-0.529,1.163-0.798,1.529-0.798c0.213,0,0.396,0.062,0.547,0.184c0.152,0.123,0.28,0.327,0.387,0.614
		c0.107,0.29,0.183,0.656,0.229,1.095C355.13,68.903,355.151,69.427,355.151,70.035z" />
<path fill="#25a0da" d="M399.701,55.299c0,3.346-0.439,6.427-1.322,9.24c-0.882,2.812-2.197,5.238-3.945,7.274
		c-1.749,2.039-3.936,3.626-6.567,4.768c-2.63,1.139-5.192,1.709-8.658,1.709c-3.377,0-5.83-0.502-8.34-1.503
		c-2.509-1.006-4.6-2.465-6.272-4.38c-1.67-1.915-2.916-4.24-3.738-6.979c-0.82-2.736-1.23-5.84-1.23-9.308
		c0-3.346,0.433-6.427,1.3-9.241c0.866-2.812,2.173-5.238,3.922-7.274c1.748-2.037,3.928-3.618,6.544-4.744
		c2.616-1.125,5.186-1.688,8.683-1.688c3.374,0,5.831,0.502,8.34,1.505c2.507,1.004,4.598,2.462,6.271,4.378
		c1.669,1.915,2.924,4.242,3.763,6.979C399.283,48.771,399.701,51.86,399.701,55.299z M391.902,55.801
		c0-2.222-0.208-4.322-0.621-6.301c-0.414-1.976-1.096-3.708-2.048-5.198c-0.951-1.49-2.241-2.669-3.865-3.535
		c-1.628-0.867-3.165-1.3-5.589-1.3c-2.241,0-3.681,0.395-5.291,1.185c-1.61,0.792-2.937,1.909-3.979,3.353
		c-1.045,1.444-1.818,3.153-2.325,5.13c-0.506,1.979-0.757,4.139-0.757,6.481c0,2.25,0.205,4.366,0.62,6.345
		c0.413,1.978,1.104,3.702,2.071,5.177c0.966,1.476,2.26,2.646,3.889,3.51c1.626,0.868,3.164,1.301,5.589,1.301
		c2.206,0,3.64-0.396,5.266-1.186c1.627-0.789,2.961-1.898,4.005-3.33c1.042-1.428,1.809-3.131,2.302-5.11
		C391.657,60.349,391.902,58.175,391.902,55.801z" />
<path fill="#25a0da" d="M437.577,70.035c0,0.519-0.019,0.966-0.048,1.346s-0.083,0.7-0.158,0.958
		c-0.076,0.259-0.168,0.486-0.274,0.684c-0.106,0.2-0.35,0.486-0.729,0.867c-0.382,0.38-1.025,0.851-1.94,1.413
		c-0.911,0.563-1.937,1.065-3.078,1.506c-1.139,0.44-2.379,0.798-3.717,1.07c-1.338,0.274-2.721,0.411-4.148,0.411
		c-2.952,0-5.565-0.486-7.846-1.46c-2.28-0.972-4.188-2.395-5.724-4.264s-2.707-4.167-3.513-6.888
		c-0.807-2.718-1.208-5.861-1.208-9.423c0-4.046,0.493-7.522,1.482-10.426c0.988-2.902,2.341-5.283,4.06-7.139
		c1.717-1.853,3.738-3.23,6.064-4.127c2.327-0.895,4.842-1.345,7.548-1.345c1.307,0,2.577,0.123,3.81,0.366
		c1.231,0.243,2.363,0.563,3.396,0.958c1.035,0.396,1.954,0.852,2.761,1.367c0.806,0.518,1.391,0.958,1.754,1.324
		c0.365,0.364,0.616,0.654,0.755,0.866c0.137,0.213,0.249,0.464,0.342,0.752c0.091,0.291,0.15,0.617,0.182,0.98
		c0.029,0.365,0.045,0.822,0.045,1.37c0,1.185-0.136,2.013-0.408,2.485c-0.274,0.472-0.61,0.707-1.004,0.707
		c-0.457,0-0.981-0.251-1.574-0.753s-1.346-1.055-2.259-1.666c-0.911-0.606-2.015-1.162-3.306-1.664
		c-1.294-0.501-2.818-0.752-4.583-0.752c-3.62,0-6.394,1.391-8.326,4.173c-1.93,2.782-2.895,6.82-2.895,12.115
		c0,2.646,0.251,4.964,0.753,6.958c0.5,1.992,1.238,3.657,2.211,4.994c0.974,1.339,2.168,2.335,3.582,2.989
		c1.414,0.653,3.032,0.979,4.856,0.979c1.732,0,3.254-0.274,4.562-0.822c1.306-0.546,2.439-1.147,3.396-1.8
		c0.959-0.653,1.764-1.247,2.416-1.78c0.654-0.529,1.166-0.798,1.53-0.798c0.212,0,0.395,0.062,0.546,0.184
		c0.153,0.123,0.281,0.327,0.389,0.614c0.105,0.29,0.183,0.656,0.229,1.095C437.553,68.903,437.577,69.427,437.577,70.035z" />
<path fill="#25a0da" d="M478.342,76.237c0,0.243-0.062,0.457-0.182,0.638c-0.123,0.183-0.325,0.336-0.616,0.456
		c-0.289,0.123-0.691,0.214-1.208,0.275c-0.517,0.059-1.171,0.092-1.962,0.092c-0.821,0-1.499-0.024-2.028-0.07
		c-0.533-0.044-0.982-0.12-1.346-0.227c-0.365-0.107-0.662-0.259-0.89-0.457c-0.227-0.195-0.432-0.433-0.616-0.707l-17.33-22.721
		v22.766c0,0.245-0.062,0.451-0.183,0.617c-0.122,0.168-0.32,0.312-0.593,0.432c-0.273,0.123-0.654,0.214-1.142,0.275
		c-0.485,0.059-1.11,0.092-1.869,0.092c-0.729,0-1.338-0.033-1.823-0.092c-0.488-0.062-0.876-0.152-1.164-0.275
		c-0.288-0.12-0.485-0.264-0.592-0.432c-0.107-0.166-0.159-0.372-0.159-0.617V23.606c0-0.243,0.052-0.455,0.159-0.638
		c0.106-0.182,0.304-0.334,0.592-0.457c0.288-0.121,0.676-0.211,1.164-0.272c0.485-0.062,1.095-0.091,1.823-0.091
		c0.759,0,1.384,0.029,1.869,0.091c0.487,0.061,0.868,0.152,1.142,0.272c0.272,0.123,0.471,0.275,0.593,0.457
		c0.121,0.184,0.183,0.395,0.183,0.638v28.863l15.505-17.062c0.243-0.302,0.505-0.553,0.778-0.752
		c0.271-0.195,0.599-0.363,0.979-0.5c0.38-0.138,0.827-0.229,1.344-0.274c0.519-0.045,1.141-0.067,1.871-0.067
		c0.761,0,1.396,0.022,1.917,0.067c0.516,0.045,0.933,0.123,1.253,0.229s0.547,0.243,0.684,0.409
		c0.138,0.168,0.205,0.387,0.205,0.662c0,0.366-0.099,0.729-0.295,1.095c-0.199,0.365-0.525,0.79-0.983,1.276l-14.865,14.873
		l16.69,21.672c0.396,0.516,0.678,0.932,0.845,1.252S478.342,75.964,478.342,76.237z" />
<path fill="#25a0da" d="M521.903,55.115c0,3.591-0.389,6.818-1.162,9.675c-0.774,2.858-1.917,5.282-3.42,7.274
		c-1.506,1.992-3.371,3.526-5.587,4.605c-2.222,1.081-4.759,1.62-7.616,1.62c-1.218,0-2.343-0.122-3.378-0.366
		c-1.033-0.242-2.045-0.622-3.032-1.137c-0.988-0.519-1.968-1.173-2.942-1.964c-0.972-0.789-2.005-1.717-3.099-2.781V90.95
		c0,0.242-0.062,0.456-0.185,0.638c-0.12,0.184-0.318,0.335-0.591,0.457c-0.274,0.12-0.656,0.214-1.142,0.272
		c-0.486,0.062-1.11,0.093-1.869,0.093c-0.729,0-1.34-0.031-1.825-0.093c-0.486-0.059-0.874-0.152-1.162-0.272
		c-0.289-0.122-0.488-0.273-0.595-0.457c-0.104-0.182-0.158-0.396-0.158-0.638V35.226c0-0.272,0.046-0.494,0.136-0.662
		c0.092-0.166,0.275-0.31,0.548-0.432c0.274-0.121,0.623-0.206,1.049-0.251c0.426-0.045,0.942-0.067,1.552-0.067
		c0.638,0,1.163,0.022,1.574,0.067c0.409,0.045,0.751,0.13,1.025,0.251c0.273,0.122,0.462,0.267,0.569,0.432
		c0.106,0.168,0.16,0.39,0.16,0.662v5.519c1.246-1.276,2.447-2.387,3.604-3.329c1.154-0.942,2.319-1.725,3.489-2.35
		c1.169-0.622,2.371-1.094,3.601-1.414c1.233-0.318,2.533-0.479,3.9-0.479c2.979,0,5.519,0.579,7.616,1.732
		c2.099,1.156,3.808,2.739,5.132,4.744c1.321,2.007,2.288,4.341,2.896,7.002C521.601,49.311,521.903,52.133,521.903,55.115z
		 M514.104,55.983c0-2.1-0.162-4.13-0.482-6.093c-0.319-1.962-0.871-3.702-1.649-5.223c-0.782-1.52-1.829-2.735-3.146-3.648
		c-1.313-0.912-2.951-1.369-4.909-1.369c-0.98,0-1.944,0.144-2.891,0.435c-0.949,0.288-1.913,0.745-2.893,1.367
		c-0.979,0.623-2.004,1.444-3.074,2.462c-1.068,1.021-2.203,2.274-3.394,3.764v16.338c2.08,2.523,4.052,4.453,5.919,5.793
		c1.864,1.338,3.824,2.005,5.874,2.005c1.896,0,3.523-0.457,4.885-1.368c1.362-0.911,2.463-2.127,3.306-3.648
		c0.842-1.521,1.461-3.222,1.857-5.109C513.904,59.802,514.104,57.897,514.104,55.983z" />
<path fill="#25a0da" d="M536.693,22.804c-0.504-0.506-1.318-0.656-3.485-0.656l0,0c-2.17,0-2.848,0.289-3.351,0.792
		c-0.505,0.506-0.795,1.183-0.795,3.351l0,0c0,2.167,0.152,2.982,0.656,3.487c0.506,0.506,1.319,0.656,3.489,0.656l0,0
		c2.167,0,2.981-0.151,3.485-0.656c0.505-0.505,0.656-1.32,0.656-3.487l0,0C537.35,24.123,537.198,23.308,536.693,22.804z" />
<path fill="#25a0da" d="M536.967,76.282c0,0.245-0.061,0.451-0.183,0.617c-0.121,0.168-0.318,0.312-0.591,0.432
		c-0.275,0.121-0.654,0.214-1.141,0.273c-0.485,0.061-1.108,0.094-1.866,0.094c-0.729,0-1.338-0.033-1.824-0.094
		c-0.485-0.06-0.873-0.152-1.161-0.273c-0.289-0.12-0.486-0.264-0.593-0.432c-0.106-0.166-0.159-0.372-0.159-0.617V35.271
		c0-0.213,0.053-0.41,0.159-0.592c0.106-0.183,0.304-0.334,0.593-0.456c0.288-0.122,0.676-0.212,1.161-0.273
		c0.486-0.062,1.095-0.092,1.824-0.092c0.758,0,1.381,0.031,1.866,0.092c0.486,0.061,0.865,0.152,1.141,0.273
		c0.272,0.122,0.47,0.272,0.591,0.456c0.122,0.182,0.183,0.379,0.183,0.592V76.282z" />
<path fill="#25a0da" d="M569.179,73.275c0,0.882-0.062,1.581-0.181,2.097c-0.124,0.518-0.305,0.896-0.548,1.14
		s-0.609,0.47-1.095,0.684c-0.486,0.212-1.042,0.387-1.661,0.524c-0.625,0.136-1.284,0.25-1.983,0.342
		c-0.7,0.09-1.397,0.136-2.098,0.136c-2.125,0-3.947-0.281-5.466-0.841c-1.52-0.563-2.765-1.414-3.736-2.554
		c-0.973-1.139-1.68-2.582-2.118-4.328c-0.441-1.747-0.662-3.806-0.662-6.175V40.328h-5.739c-0.456,0-0.82-0.242-1.095-0.728
		c-0.272-0.486-0.408-1.275-0.408-2.369c0-0.577,0.037-1.063,0.112-1.458c0.076-0.395,0.176-0.722,0.296-0.98
		c0.122-0.259,0.28-0.44,0.479-0.547c0.197-0.106,0.417-0.159,0.662-0.159h5.693v-10.48c0-0.212,0.054-0.411,0.16-0.593
		c0.107-0.183,0.305-0.342,0.593-0.479s0.676-0.235,1.162-0.296c0.485-0.061,1.093-0.091,1.821-0.091c0.76,0,1.383,0.03,1.869,0.091
		c0.485,0.061,0.865,0.159,1.138,0.296c0.274,0.137,0.473,0.295,0.595,0.479c0.12,0.182,0.183,0.38,0.183,0.593v10.48h10.524
		c0.242,0,0.456,0.053,0.639,0.159c0.181,0.107,0.339,0.289,0.478,0.547c0.136,0.258,0.235,0.585,0.296,0.98
		c0.06,0.395,0.091,0.881,0.091,1.458c0,1.094-0.136,1.883-0.41,2.369c-0.273,0.486-0.637,0.728-1.093,0.728h-10.524v22.88
		c0,2.824,0.416,4.959,1.252,6.4c0.836,1.444,2.329,2.164,4.486,2.164c0.699,0,1.322-0.067,1.87-0.204
		c0.546-0.138,1.033-0.28,1.457-0.432c0.425-0.153,0.791-0.297,1.093-0.436c0.305-0.136,0.577-0.203,0.822-0.203
		c0.149,0,0.294,0.037,0.431,0.112c0.139,0.077,0.243,0.222,0.319,0.433c0.075,0.214,0.146,0.502,0.206,0.867
		C569.147,72.273,569.179,72.73,569.179,73.275z" />
</g>
<g>
<path fill="#25a0da" d="M181.201,75.894c0,0.301-0.09,0.564-0.271,0.789c-0.18,0.227-0.489,0.414-0.925,0.564
		s-1.014,0.264-1.735,0.34c-0.721,0.074-1.639,0.111-2.75,0.111c-1.113,0-2.029-0.037-2.75-0.111
		c-0.722-0.076-1.301-0.189-1.736-0.34c-0.437-0.15-0.744-0.338-0.925-0.564c-0.18-0.225-0.27-0.488-0.27-0.789
		c0,0,0-36.258,0-38.127c0-2.299,1.131-3.551,2.931-3.766c0.722-0.086,1.637-0.137,2.75-0.137c1.111,0,2.029,0.047,2.75,0.137
		c0.722,0.09,1.3,0.217,1.735,0.383s0.745,0.361,0.925,0.586c0.181,0.225,0.271,0.49,0.271,0.789V75.894z" />
<path fill="#25a0da" d="M255.858,75.894c0,0.301-0.09,0.564-0.271,0.789c-0.18,0.227-0.481,0.414-0.902,0.564
		c-0.42,0.15-0.991,0.264-1.712,0.34c-0.723,0.074-1.64,0.111-2.752,0.111c-1.142,0-2.073-0.037-2.795-0.111
		c-0.721-0.076-1.3-0.189-1.735-0.34c-0.437-0.15-0.736-0.338-0.902-0.564c-0.165-0.225-0.247-0.488-0.247-0.789V52.037
		c0-1.352-0.128-2.587-0.384-3.698c-0.255-1.113-0.646-2.066-1.172-2.863c-0.526-0.797-1.188-1.414-1.983-1.85
		c-0.797-0.436-1.752-0.652-2.863-0.652c-1.353,0-2.721,0.525-4.103,1.576c-1.383,1.053-2.886,2.586-4.509,4.599v26.745
		c0,0.301-0.09,0.564-0.271,0.789c-0.181,0.227-0.489,0.414-0.925,0.564s-1.014,0.264-1.735,0.34
		c-0.722,0.074-1.623,0.111-2.705,0.111c-1.112,0-2.029-0.037-2.75-0.111c-0.722-0.076-1.301-0.189-1.736-0.34
		s-0.744-0.338-0.924-0.564c-0.181-0.225-0.271-0.488-0.271-0.789V52.037c0-1.352-0.127-2.587-0.383-3.698
		c-0.256-1.113-0.639-2.066-1.149-2.863c-0.512-0.797-1.172-1.414-1.983-1.85s-1.759-0.652-2.841-0.652
		c-1.383,0-2.766,0.525-4.148,1.576c-1.383,1.053-2.87,2.586-4.463,4.599v26.745c0,0.301-0.09,0.564-0.271,0.789
		c-0.181,0.227-0.489,0.414-0.925,0.564s-1.015,0.264-1.735,0.34c-0.722,0.074-1.64,0.111-2.75,0.111
		c-1.112,0-2.029-0.037-2.75-0.111c-0.723-0.076-1.301-0.189-1.736-0.34c-0.437-0.15-0.744-0.338-0.925-0.564
		c-0.18-0.225-0.271-0.488-0.271-0.789V35.669c0-0.299,0.075-0.564,0.226-0.789s0.421-0.412,0.812-0.562s0.895-0.264,1.511-0.34
		c0.615-0.074,1.39-0.113,2.322-0.113c0.961,0,1.758,0.039,2.39,0.113c0.631,0.076,1.118,0.189,1.465,0.34
		c0.345,0.15,0.593,0.338,0.744,0.562c0.149,0.225,0.226,0.49,0.226,0.789v4.645c2.224-2.406,4.44-4.209,6.65-5.412
		c2.209-1.201,4.515-1.803,6.92-1.803c1.653,0,3.141,0.174,4.464,0.52c1.322,0.346,2.502,0.84,3.539,1.486s1.932,1.42,2.683,2.322
		s1.382,1.91,1.894,3.021c1.202-1.293,2.382-2.404,3.54-3.336c1.156-0.932,2.299-1.691,3.426-2.277s2.255-1.021,3.382-1.309
		c1.127-0.285,2.277-0.428,3.449-0.428c2.675,0,4.93,0.451,6.763,1.354c1.833,0.9,3.314,2.127,4.44,3.674
		c1.128,1.549,1.932,3.359,2.412,5.434c0.481,2.072,0.722,4.268,0.722,6.582V75.894z" />
<path fill="#25a0da" d="M302.344,54.608c0,1.385-0.309,2.407-0.924,3.069c-0.615,0.66-1.465,0.993-2.547,0.993h-24.482
		c0,1.714,0.202,3.271,0.608,4.669c0.405,1.396,1.051,2.586,1.939,3.561c0.886,0.977,2.029,1.723,3.427,2.23
		c1.397,0.514,3.072,0.77,5.026,0.77c1.984,0,3.727-0.143,5.231-0.43c1.502-0.285,2.803-0.602,3.898-0.947
		c1.098-0.344,2.008-0.66,2.729-0.947c0.723-0.283,1.309-0.428,1.76-0.428c0.268,0,0.494,0.055,0.674,0.158
		c0.18,0.105,0.332,0.293,0.451,0.564c0.121,0.27,0.203,0.652,0.248,1.148c0.047,0.496,0.068,1.121,0.068,1.871
		c0,0.662-0.016,1.225-0.045,1.689c-0.031,0.467-0.076,0.867-0.137,1.197s-0.15,0.607-0.27,0.832
		c-0.121,0.227-0.277,0.445-0.473,0.654c-0.197,0.211-0.73,0.498-1.602,0.857s-1.982,0.715-3.338,1.061
		c-1.352,0.344-2.9,0.645-4.643,0.9c-1.743,0.254-3.606,0.383-5.59,0.383c-3.577,0-6.711-0.449-9.4-1.352
		c-2.69-0.902-4.938-2.27-6.741-4.104c-1.803-1.832-3.148-4.146-4.034-6.943c-0.888-2.795-1.33-6.072-1.33-9.832
		c0-3.582,0.465-6.805,1.397-9.676c0.931-2.869,2.284-5.305,4.058-7.305c1.772-1.998,3.929-3.523,6.47-4.576
		c2.54-1.053,5.403-1.578,8.59-1.578c3.366,0,6.244,0.496,8.632,1.488c2.393,0.992,4.352,2.367,5.885,4.125s2.66,3.84,3.381,6.244
		c0.723,2.406,1.082,5.021,1.082,7.849V54.608z M291.342,51.359c0.092-3.186-0.547-5.688-1.914-7.506
		c-1.368-1.818-3.479-2.729-6.335-2.729c-1.443,0-2.698,0.27-3.765,0.812c-1.067,0.541-1.953,1.27-2.66,2.186
		c-0.706,0.918-1.248,2-1.623,3.246c-0.377,1.248-0.594,2.578-0.653,3.991H291.342z" />
<path fill="#25a0da" d="M163.33,68.567c-0.09-0.314-0.218-0.525-0.383-0.631c-0.166-0.104-0.338-0.158-0.519-0.158
		c-0.21,0-0.443,0.055-0.699,0.158c-0.256,0.105-0.571,0.225-0.946,0.361c-0.376,0.135-0.805,0.256-1.285,0.361
		s-1.022,0.156-1.623,0.156c-1.773,0-3.006-0.549-3.697-1.645c-0.692-1.098-1.037-2.744-1.037-4.938V24.681
		c0-0.301-0.09-0.572-0.271-0.812c-0.18-0.24-0.481-0.443-0.901-0.609c-0.421-0.164-1-0.285-1.735-0.361
		c-0.737-0.074-1.661-0.111-2.773-0.111c-1.081,0-1.991,0.037-2.728,0.111c-0.737,0.076-1.323,0.197-1.758,0.361
		c-0.437,0.166-0.737,0.369-0.902,0.609c-0.166,0.24-0.248,0.512-0.248,0.812v9.906h-6.82c-0.301,0-0.563,0.076-0.789,0.225
		c-0.226,0.152-0.413,0.4-0.563,0.744c-0.15,0.346-0.264,0.82-0.338,1.42c-0.075,0.602-0.113,1.623-0.113,2.494
		c0,1.652,0.15,3.115,0.451,3.822c0.3,0.705,0.735,1.059,1.308,1.059h6.865v19.595c0,2.467,0.255,4.6,0.767,6.402
		c0.511,1.805,1.308,3.299,2.39,4.486s2.449,2.066,4.103,2.637c1.653,0.572,3.607,0.857,5.861,0.857
		c0.842,0,1.676-0.045,2.503-0.135c0.825-0.09,1.592-0.219,2.299-0.383c0.706-0.166,1.322-0.361,1.849-0.586
		c0.525-0.225,0.924-0.48,1.195-0.768c0.27-0.285,0.488-0.781,0.653-1.486c0.165-0.707,0.248-1.723,0.248-3.043
		c0-0.844-0.038-1.535-0.113-2.076S163.42,68.884,163.33,68.567z" />
<path fill="#25a0da" d="M180.674,19.612c-0.715-0.714-1.866-0.928-4.935-0.928c-3.069,0-4.222,0.214-4.936,0.928
		c-0.714,0.715-0.928,1.866-0.928,4.936h0c0,4.923-1.648,6.484-2.465,7.301c-0.732,0.732-2.285,2.285-6.566,2.285v0
		c-2.778,0-3.821,0.193-4.468,0.84c-0.646,0.646-0.839,1.689-0.839,4.467h-0.001c0,2.778,0.194,3.822,0.84,4.469
		c0.647,0.648,1.69,0.841,4.468,0.841c2.778,0,3.821-0.194,4.468-0.841c0.647-0.646,0.84-1.69,0.84-4.469
		c0-4.281,1.544-5.826,2.285-6.566c0.816-0.816,2.378-2.465,7.301-2.465h0.001c3.069,0,4.22-0.213,4.935-0.928
		c0.715-0.714,0.928-1.866,0.928-4.935C181.602,21.479,181.389,20.327,180.674,19.612z" />
</g>
<g>
<path fill="#25a0da" d="M57.252,2.009C55.704,0.461,53.209,0,46.562,0l0,0c-6.647,0-9.141,0.463-10.688,2.009
		c-1.547,1.547-2.009,4.043-2.009,10.69h-0.001c0,6.645,0.463,9.142,2.009,10.688c1.549,1.548,4.043,2.009,10.69,2.009l0,0
		c6.647,0,8.72-0.885,10.267-2.433c1.547-1.547,2.433-3.621,2.433-10.265l0,0C59.262,6.052,58.799,3.557,57.252,2.009z" />
<path fill="#25a0da" d="M91.116,35.874c-1.549-1.547-4.043-2.009-10.689-2.009l0,0c-6.647,0-8.719,0.886-10.266,2.431
		c-1.548,1.548-2.432,3.62-2.432,10.268l0,0c0,6.646,0.461,9.144,2.008,10.692c1.547,1.549,4.043,2.012,10.69,2.012l0,0
		c6.647,0,9.14-0.465,10.688-2.012c1.548-1.548,2.01-4.046,2.01-10.692l0,0C93.125,39.916,92.663,37.421,91.116,35.874z" />
<path fill="#25a0da" d="M23.388,35.874c-1.547-1.547-4.043-2.009-10.689-2.009l0,0c-6.648,0-9.142,0.462-10.69,2.009
		C0.462,37.421,0,39.916,0,46.563l0,0c0,6.646,0.462,9.144,2.008,10.692c1.549,1.549,4.043,2.012,10.69,2.012l0,0
		c6.647,0,9.143-0.465,10.688-2.012c1.549-1.548,2.011-4.046,2.011-10.692h0.001C25.398,39.916,24.936,37.421,23.388,35.874z" />
<path fill="#25a0da" d="M57.252,69.746c-1.548-1.547-4.043-2.012-10.69-2.012l0,0c-6.647,0-9.141,0.465-10.688,2.012
		c-1.547,1.549-2.009,4.045-2.009,10.689h-0.001c0,6.646,0.463,9.141,2.009,10.686c1.549,1.553,4.043,2.012,10.69,2.012l0,0
		c6.647,0,9.142-0.459,10.69-2.008c1.547-1.549,2.009-4.043,2.009-10.689l0,0C59.262,73.789,58.799,71.295,57.252,69.746z" />
<path fill="#25a0da" d="M91.116,2.009C89.567,0.461,87.073,0,80.427,0l0,0c-6.647,0-9.144,0.463-10.69,2.009
		c-1.546,1.547-2.008,4.043-2.008,10.69h-0.001c0,10.663-3.569,14.046-5.339,15.814l-0.011,0.013
		c-1.783,1.753-5.151,5.335-15.815,5.335v0.002c-6.647,0-9.141,0.462-10.688,2.009c-1.547,1.548-2.009,4.042-2.009,10.689h-0.001
		c0,6.646,0.463,9.144,2.009,10.692c1.549,1.549,4.043,2.012,10.69,2.012c6.647,0,9.142-0.465,10.69-2.012
		c1.547-1.548,2.009-4.046,2.009-10.692h0.001c0-10.664,3.569-14.046,5.337-15.814l0.013-0.013
		c1.781-1.753,5.149-5.338,15.813-5.338l0,0h0.001l0,0c6.647,0,9.14-0.461,10.688-2.009c1.548-1.546,2.01-4.044,2.01-10.688l0,0
		C93.125,6.052,92.663,3.557,91.116,2.009z" />
</g>
</svg>
